<svg xmlns="http://www.w3.org/2000/svg"  viewBox="0 0 100 100" width="100px" height="100px"><path fill="#c7ede6" d="M87.215,56.71C88.35,54.555,89,52.105,89,49.5c0-6.621-4.159-12.257-10.001-14.478 C78.999,35.015,79,35.008,79,35c0-11.598-9.402-21-21-21c-9.784,0-17.981,6.701-20.313,15.757C36.211,29.272,34.638,29,33,29 c-7.692,0-14.023,5.793-14.89,13.252C12.906,43.353,9,47.969,9,53.5C9,59.851,14.149,65,20.5,65c0.177,0,0.352-0.012,0.526-0.022 C21.022,65.153,21,65.324,21,65.5C21,76.822,30.178,86,41.5,86c6.437,0,12.175-2.972,15.934-7.614C59.612,80.611,62.64,82,66,82 c4.65,0,8.674-2.65,10.666-6.518C77.718,75.817,78.837,76,80,76c6.075,0,11-4.925,11-11C91,61.689,89.53,58.727,87.215,56.71z"/><path fill="#fdfcef" d="M72,34h-5.75c-2.485,0.75-4.5-1.265-4.5-3.75c0-2.333,1.782-4.229,4.055-4.455 c-0.022-0.181-0.055-0.358-0.055-0.545c0-2.485,2.015-4.5,4.5-4.5c1.438,0,2.703,0.686,3.527,1.736 c0.14-2.636,2.302-4.736,4.973-4.736c2.761,0,5,2.239,5,5c0,0.446-0.077,0.87-0.187,1.282c0.642-0.777,1.6-1.282,2.687-1.282 c1.781,0,3.234,1.335,3.455,3.055c0.181-0.022,0.358-0.055,0.545-0.055c2.485,0,4.5,2.015,4.5,4.5s-2.015,4.5-4.5,3.75h-9.5H75v1 h-3V34z"/><path fill="#472b29" d="M78.5,17c3.033,0,5.5,2.467,5.5,5.5c0,0.016,0,0.031,0,0.047C84.602,22.192,85.29,22,86,22 c1.831,0,3.411,1.261,3.858,3.005C89.905,25.002,89.952,25,90,25c3.099,0,5.549,2.834,4.893,6.047 C94.413,33.398,92.204,35,89.804,35l-14.679,0c-0.276,0-0.5-0.224-0.5-0.5s0.224-0.5,0.5-0.5l14.718,0 c1.92,0,3.687-1.282,4.071-3.163C94.439,28.267,92.479,26,90,26c-0.117,0-0.23,0.017-0.343,0.032l-0.141,0.019 c-0.021,0.003-0.041,0.004-0.062,0.004c-0.246,0-0.462-0.185-0.495-0.437C88.768,24.125,87.496,23,86,23 c-0.885,0-1.723,0.401-2.301,1.1c-0.098,0.118-0.241,0.182-0.386,0.182c-0.078,0-0.156-0.018-0.228-0.056 c-0.209-0.107-0.314-0.346-0.254-0.573c0.16-0.6,0.202-1.069,0.147-1.549c-0.24-2.127-1.959-3.909-4.092-4.088 c-2.551-0.215-4.725,1.728-4.859,4.246c-0.011,0.208-0.15,0.387-0.349,0.45c-0.05,0.016-0.101,0.024-0.152,0.024 c-0.15,0-0.296-0.069-0.392-0.192C72.362,21.563,71.221,21,70,21c-2.206,0-4,1.794-4,4c0,0.117,0.017,0.23,0.032,0.343 l0.019,0.141c0.016,0.134-0.022,0.268-0.106,0.373c-0.084,0.105-0.207,0.172-0.34,0.185c-2.352,0.234-4.042,2.429-3.504,4.865 C62.509,32.76,64.275,34,66.173,34l5.952,0c0.276,0,0.5,0.224,0.5,0.5s-0.224,0.5-0.5,0.5l-5.938,0 c-2.467,0-4.708-1.704-5.115-4.138c-0.462-2.763,1.344-5.22,3.931-5.74C65.001,25.082,65,25.041,65,25c0-2.757,2.243-5,5-5 c1.176,0,2.293,0.416,3.183,1.164C73.781,18.76,75.945,17,78.5,17L78.5,17z"/><path fill="#472b29" d="M80.25,24.25c1.403,0,2.609,0.999,2.913,2.341c0.367-0.222,0.786-0.341,1.212-0.341 c1.202,0,2.198,0.897,2.353,2.068c0.203-0.045,0.396-0.068,0.585-0.068c1.529,0,2.811,1.2,2.918,2.732 c0.009,0.138-0.094,0.257-0.232,0.267c-0.006,0-0.012,0-0.018,0c-0.13,0-0.24-0.101-0.249-0.232 c-0.089-1.271-1.151-2.268-2.419-2.268c-0.229,0-0.47,0.042-0.738,0.127c-0.022,0.007-0.045,0.01-0.067,0.01 c-0.055,0-0.11-0.02-0.156-0.054c-0.064-0.047-0.102-0.129-0.102-0.209c0-1.034-0.841-1.875-1.875-1.875 c-0.447,0-0.885,0.168-1.231,0.473c-0.047,0.041-0.106,0.063-0.165,0.063c-0.032,0-0.063-0.006-0.093-0.019 c-0.088-0.035-0.148-0.117-0.155-0.212c-0.102-1.292-1.191-2.305-2.479-2.305c-0.208,0-0.425,0.034-0.682,0.107 c-0.023,0.007-0.047,0.01-0.07,0.01c-0.109,0-0.207-0.073-0.239-0.182c-0.038-0.133,0.039-0.271,0.172-0.309 C79.733,24.29,79.994,24.25,80.25,24.25L80.25,24.25z"/><path fill="#472b29" d="M66.367,25.75c1.326,0,2.508,0.897,2.874,2.182c0.038,0.133-0.039,0.271-0.172,0.309 c-0.023,0.007-0.046,0.01-0.068,0.01c-0.109,0-0.209-0.072-0.24-0.182c-0.305-1.071-1.289-1.818-2.393-1.818 c-0.117,0-0.23,0.014-0.342,0.029c-0.012,0.002-0.023,0.003-0.035,0.003c-0.121,0-0.229-0.092-0.246-0.217 c-0.019-0.137,0.077-0.263,0.214-0.281C66.092,25.766,66.228,25.75,66.367,25.75L66.367,25.75z"/><path fill="#fff" d="M17.405,49H7.5C7.224,49,7,48.776,7,48.5S7.224,48,7.5,48h9.905c0.276,0,0.5,0.224,0.5,0.5 S17.682,49,17.405,49z"/><path fill="#fff" d="M20.5,49h-1c-0.276,0-0.5-0.224-0.5-0.5s0.224-0.5,0.5-0.5h1c0.276,0,0.5,0.224,0.5,0.5 S20.777,49,20.5,49z"/><path fill="#fff" d="M25.491,51H16.5c-0.276,0-0.5-0.224-0.5-0.5s0.224-0.5,0.5-0.5h8.991c0.276,0,0.5,0.224,0.5,0.5 S25.767,51,25.491,51z"/><path fill="#fff" d="M14.5,51h-1c-0.276,0-0.5-0.224-0.5-0.5s0.224-0.5,0.5-0.5h1c0.276,0,0.5,0.224,0.5,0.5 S14.777,51,14.5,51z"/><path fill="#fff" d="M11.5,51h-2C9.224,51,9,50.776,9,50.5S9.224,50,9.5,50h2c0.276,0,0.5,0.224,0.5,0.5 S11.777,51,11.5,51z"/><path fill="#fff" d="M17.5,53h-2c-0.276,0-0.5-0.224-0.5-0.5s0.224-0.5,0.5-0.5h2c0.276,0,0.5,0.224,0.5,0.5 S17.776,53,17.5,53z"/><path fill="#fff" d="M20.5,44c-0.177,0-0.823,0-1,0c-0.276,0-0.5,0.224-0.5,0.5c0,0.276,0.224,0.5,0.5,0.5 c0.177,0,0.823,0,1,0c0.276,0,0.5-0.224,0.5-0.5C21,44.224,20.776,44,20.5,44z"/><path fill="#fff" d="M20.5,46c-0.177,0-4.823,0-5,0c-0.276,0-0.5,0.224-0.5,0.5c0,0.276,0.224,0.5,0.5,0.5 c0.177,0,4.823,0,5,0c0.276,0,0.5-0.224,0.5-0.5C21,46.224,20.776,46,20.5,46z"/><path fill="#fff" d="M25.5,48c-0.177,0-2.823,0-3,0c-0.276,0-0.5,0.224-0.5,0.5c0,0.276,0.224,0.5,0.5,0.5 c0.177,0,2.823,0,3,0c0.276,0,0.5-0.224,0.5-0.5C26,48.224,25.776,48,25.5,48z"/><path fill="#fff" d="M87,65H77c-0.276,0-0.5-0.224-0.5-0.5S76.724,64,77,64h10c0.276,0,0.5,0.224,0.5,0.5 S87.276,65,87,65z"/><path fill="#fff" d="M91,65h-2c-0.276,0-0.5-0.224-0.5-0.5S88.724,64,89,64h2c0.276,0,0.5,0.224,0.5,0.5 S91.276,65,91,65z"/><path fill="#fff" d="M96,67H86c-0.276,0-0.5-0.224-0.5-0.5S85.724,66,86,66h10c0.276,0,0.5,0.224,0.5,0.5 S96.277,67,96,67z"/><path fill="#fff" d="M84,67h-1c-0.276,0-0.5-0.224-0.5-0.5S82.724,66,83,66h1c0.276,0,0.5,0.224,0.5,0.5 S84.276,67,84,67z"/><path fill="#fff" d="M80.875,67H79c-0.276,0-0.5-0.224-0.5-0.5S78.724,66,79,66h1.875c0.276,0,0.5,0.224,0.5,0.5 S81.151,67,80.875,67z"/><path fill="#fff" d="M90,63h-5c-0.276,0-0.5-0.224-0.5-0.5S84.724,62,85,62h5c0.276,0,0.5,0.224,0.5,0.5 S90.277,63,90,63z"/><path fill="#fff" d="M87,69h-2c-0.276,0-0.5-0.224-0.5-0.5S84.724,68,85,68h2c0.276,0,0.5,0.224,0.5,0.5 S87.276,69,87,69z"/><path fill="#fdfcef" d="M21.25,76.5c0,0-1.567,0-3.5,0s-3.5-1.567-3.5-3.5c0-1.781,1.335-3.234,3.055-3.455 C17.277,69.366,17.25,69.187,17.25,69c0-1.933,1.567-3.5,3.5-3.5c1.032,0,1.95,0.455,2.59,1.165 c0.384-1.808,1.987-3.165,3.91-3.165c2.209,0,4,1.791,4,4c0,0.191-0.03,0.374-0.056,0.558c0.428-0.344,0.965-0.558,1.556-0.558 c1.228,0,2.245,0.887,2.455,2.055c0.179-0.028,0.358-0.055,0.545-0.055c1.933,0,3.5,1.567,3.5,3.5s-1.567,3.5-3.5,3.5 s-7.5,0-7.5,0V77h-7V76.5z"/><path fill="#472b29" d="M19.5,72c0.138,0,0.25-0.112,0.25-0.25c0-1.223-0.995-2.218-2.218-2.218 c-0.034,0.009-0.737-0.001-1.244,0.136c-0.133,0.036-0.212,0.173-0.176,0.306c0.036,0.134,0.173,0.213,0.306,0.176 c0.444-0.12,1.1-0.12,1.113-0.118c0.948,0,1.719,0.771,1.719,1.718C19.25,71.888,19.362,72,19.5,72z"/><circle cx="26.25" cy="76.5" r=".5" fill="#472b29"/><path fill="#472b29" d="M17.75,77h3.5c0.276,0,0.5-0.224,0.5-0.5s-0.224-0.5-0.5-0.5h-3.5c-1.654,0-3-1.346-3-3 c0-1.496,1.125-2.768,2.618-2.959c0.134-0.018,0.255-0.088,0.336-0.196s0.115-0.244,0.094-0.377 C17.775,69.314,17.75,69.16,17.75,69c0-1.654,1.346-3,3-3c0.85,0,1.638,0.355,2.219,1c0.125,0.139,0.321,0.198,0.5,0.148 c0.182-0.049,0.321-0.195,0.36-0.379C24.17,65.165,25.609,64,27.25,64c1.93,0,3.5,1.57,3.5,3.5c0,0.143-0.021,0.28-0.041,0.418 c-0.029,0.203,0.063,0.438,0.242,0.54c0.179,0.102,0.396,0.118,0.556-0.01C31.872,68.155,32.301,68,32.75,68 c0.966,0,1.792,0.691,1.963,1.644c0.048,0.267,0.296,0.446,0.569,0.405C35.436,70.025,35.59,70,35.75,70c1.654,0,3,1.346,3,3 s-1.346,3-3,3h-7.5c-0.276,0-0.5,0.224-0.5,0.5s0.224,0.5,0.5,0.5h7.5c2.206,0,4-1.794,4-4s-1.794-4-4-4 c-0.059,0-0.116,0.002-0.174,0.006C35.162,67.82,34.039,67,32.75,67c-0.349,0-0.689,0.061-1.011,0.18 C31.574,64.847,29.624,63,27.25,63c-1.831,0-3.466,1.127-4.153,2.774C22.417,65.276,21.595,65,20.75,65c-2.206,0-4,1.794-4,4 c0,0.048,0.001,0.095,0.004,0.142C15.011,69.59,13.75,71.169,13.75,73C13.75,75.206,15.544,77,17.75,77z"/><path fill="#472b29" d="M23.25,76c0.159,0,0.841,0,1,0c0.276,0,0.5,0.224,0.5,0.5c0,0.276-0.224,0.5-0.5,0.5 c-0.159,0-0.841,0-1,0c-0.276,0-0.5-0.224-0.5-0.5C22.75,76.224,22.974,76,23.25,76z"/><path fill="#f6cca4" d="M71.875,44.5c0,0,2,3-2,11c0,0,0,3-2,3s1-14,1-14H71.875z"/><path fill="#472b29" d="M67.875,59c-0.277,0-0.533-0.127-0.719-0.357c-1.372-1.697,0.784-12.166,1.229-14.248 C68.436,44.165,68.64,44,68.875,44h3c0.167,0,0.323,0.083,0.416,0.223c0.088,0.132,2.097,3.309-1.918,11.398 C70.34,56.857,69.788,59,67.875,59z M69.28,45c-1.225,5.828-2.074,12.358-1.34,13.022c1.409-0.022,1.435-2.498,1.435-2.523 c0-0.077,0.019-0.154,0.053-0.223c3.192-6.384,2.45-9.459,2.133-10.276H69.28z"/><path fill="#f6cca4" d="M34.187,44.5c0,0-2,3,2,11c0,0,0,3,2,3s-1-14-1-14H34.187z"/><path fill="#472b29" d="M38.188,59c-1.914,0-2.465-2.143-2.499-3.379c-4.014-8.09-2.005-11.267-1.917-11.398 C33.864,44.083,34.021,44,34.188,44h3c0.236,0,0.439,0.165,0.489,0.395c0.446,2.082,2.602,12.551,1.23,14.248 C38.72,58.873,38.465,59,38.188,59z M34.502,45c-0.317,0.817-1.06,3.892,2.133,10.276c0.035,0.069,0.052,0.146,0.053,0.223 c0,0.025,0.025,2.501,1.5,2.501c0.67-0.643-0.18-7.172-1.405-13H34.502z"/><path fill="#f6cca4" d="M51.544,77.3c-2.956,0-5.721-1.479-7.216-3.86c-2.023-3.223-3.714-6.699-5.026-10.329 c-0.289-0.8-0.508-1.66-0.669-2.627L35.827,43.7h34.346l-2.806,16.784c-0.158,0.95-0.384,1.833-0.67,2.627 c-1.31,3.628-3,7.104-5.025,10.33c-1.495,2.381-4.26,3.86-7.216,3.86H51.544z"/><path fill="#472b29" d="M69.346,44.4l-2.67,15.969c-0.155,0.925-0.363,1.744-0.638,2.504 c-1.293,3.583-2.962,7.013-4.96,10.195c-1.368,2.179-3.906,3.532-6.623,3.532H53h-1.456c-2.718,0-5.256-1.354-6.623-3.532 c-1.998-3.183-3.667-6.613-4.96-10.195c-0.275-0.76-0.483-1.579-0.638-2.504L36.654,44.4H53H69.346 M71,43H53H35l2.942,17.6 c0.156,0.932,0.379,1.856,0.702,2.749c1.334,3.694,3.031,7.182,5.091,10.464C45.368,76.413,48.343,78,51.544,78H53h1.456 c3.201,0,6.176-1.587,7.809-4.188c2.06-3.282,3.758-6.77,5.091-10.464c0.322-0.893,0.546-1.817,0.702-2.749L71,43L71,43z"/><path fill="#fff" d="M42.5,51.5h5l1,1C48.5,52.5,44.5,55.5,42.5,51.5z"/><path fill="#472b29" d="M45.831,57.75h-4.202c-3.362,0-3.401-3.218-3.401-3.25v-3c0-1.084,1.064-2.25,3.401-2.25h7.353 c1.331,0,1.87,0.651,2.088,1.198c0.762,1.904-1.12,5.476-1.916,6.234C48.044,57.738,45.921,57.75,45.831,57.75z M41.629,49.75 c-1.993,0-2.901,0.907-2.901,1.75v3c0,0.112,0.044,2.75,2.901,2.75h4.202c0.02,0,2.014-0.013,2.979-0.931 c0.691-0.657,2.457-4.034,1.797-5.686c-0.238-0.594-0.769-0.883-1.625-0.883H41.629z"/><path fill="#836f61" d="M58,63.019l-3.375-0.644C54,63.276,53.25,63.663,52.75,63.663c-1,0-1.241-0.517-1.875-1.159 L48,63.019c0,0-4,1.03-4,5.15c0,2.06,0,3.09,0,4.12s2,7.211,9,7.211s9-6.18,9-7.211s0-2.06,0-4.12C62,64.049,58,63.019,58,63.019z M59,68.169c-0.247,1.368-4,2.446-6,2.446s-5.753-1.078-6-2.446c-0.129-0.717,0.375-1.545,1-1.416c2.25,0.386,3,0.386,5,0.386 s2.75,0,5-0.386C58.625,66.624,59.129,67.452,59,68.169z"/><path fill="#472b29" d="M53,80c-7.021,0-9.5-6.141-9.5-7.71v-4.12c0-4.456,4.332-5.623,4.375-5.635l2.911-0.523 c0.165-0.028,0.329,0.024,0.444,0.141c0.123,0.124,0.231,0.244,0.334,0.356c0.406,0.449,0.592,0.654,1.186,0.654 c0.347,0,0.953-0.336,1.464-1.073c0.113-0.163,0.312-0.243,0.505-0.206l3.375,0.644c0.011,0.002,0.021,0.004,0.031,0.007 c0.043,0.011,4.375,1.178,4.375,5.635v4.12C62.5,73.859,60.021,80,53,80z M50.698,63.043l-2.61,0.468 c-0.11,0.031-3.588,0.987-3.588,4.658v4.12c0,0.797,1.795,6.71,8.5,6.71s8.5-5.914,8.5-6.71v-4.12c0-3.593-3.33-4.585-3.611-4.663 l-3.05-0.582c-0.724,0.907-1.538,1.238-2.089,1.238c-1.036,0-1.469-0.477-1.927-0.982C50.783,63.136,50.741,63.09,50.698,63.043z M53,71.116c-1.787,0-6.151-0.972-6.492-2.858c-0.106-0.588,0.098-1.251,0.508-1.651c0.305-0.298,0.7-0.424,1.085-0.344 c2.191,0.376,2.929,0.376,4.899,0.376s2.707,0,4.915-0.379c0.373-0.077,0.765,0.049,1.068,0.346 c0.41,0.399,0.614,1.063,0.509,1.651c0,0,0,0,0,0C59.151,70.144,54.787,71.116,53,71.116z M47.873,67.241 c-0.038,0-0.09,0.014-0.159,0.082c-0.174,0.17-0.269,0.495-0.222,0.758c0.158,0.875,3.298,2.035,5.508,2.035 s5.349-1.16,5.508-2.035l0,0c0.047-0.263-0.048-0.589-0.222-0.758c-0.099-0.096-0.163-0.084-0.186-0.08 c-2.308,0.396-3.068,0.396-5.101,0.396s-2.792,0-5.084-0.394C47.904,67.243,47.89,67.241,47.873,67.241z M59,68.169h0.01H59z"/><path fill="#9f8066" d="M54.784,47.206c-0.824,0-1.59-0.01-2.275-0.022c-0.724,0.013-1.5,0.022-2.34,0.022 c-10.636,0-17.944-1.596-21.721-4.744c-2.363-1.969-2.231-2.762-2.181-2.902c0.151-0.418,1.252-0.869,3.313-0.869 c0.231,0,0.377,0.007,0.385,0.007L74.618,38.7c0.044-0.001,0.187-0.008,0.414-0.008c1.724,0,3.058,0.354,3.243,0.862 c0.052,0.14,0.188,0.936-2.143,2.912C72.421,45.611,65.237,47.206,54.784,47.206C54.784,47.206,54.785,47.206,54.784,47.206z"/><path fill="#472b29" d="M75.031,39.392c1.43,0,2.252,0.246,2.538,0.413c-0.092,0.243-0.458,0.913-1.89,2.127 c-3.582,3.035-10.612,4.574-20.895,4.574c-0.82,0-1.581-0.009-2.262-0.022l-0.026,0l-0.026,0 c-0.694,0.013-1.467,0.022-2.302,0.022c-10.467,0-17.625-1.541-21.273-4.582c-1.437-1.197-1.818-1.866-1.918-2.114 c0.298-0.17,1.139-0.418,2.601-0.418c0.205,0,0.336,0.005,0.35,0.006l0.035,0.001H30h22h1h21.618h0.036l0.034-0.001 C74.704,39.397,74.832,39.392,75.031,39.392 M75.031,37.992c-0.256,0-0.414,0.008-0.414,0.008H53h-1H30 c0,0-0.161-0.008-0.421-0.008c-1.634,0-7.204,0.321-1.579,5.008c5.181,4.317,15.566,4.906,22.169,4.906 c0.844,0,1.625-0.01,2.327-0.022c0.69,0.013,1.459,0.022,2.288,0.022c6.493,0,16.706-0.589,21.801-4.906 C82.115,38.313,76.639,37.992,75.031,37.992L75.031,37.992z"/><g><path fill="#9f8066" d="M69.982,34.797l-0.686-7.759c-0.164-1.854-1.419-3.424-3.165-3.917C62.224,22.016,57.4,21,52.5,21 s-9.724,1.016-13.631,2.121c-1.746,0.494-3.001,2.063-3.165,3.917l-0.686,7.759C35.006,34.932,35,35.068,35,35.204V42 c0,2,8.385,3,17.5,3S70,44,70,42v-6.796C70,35.068,69.994,34.932,69.982,34.797z"/></g><g><path fill="#fff" d="M63.522,51.5h-5l-1,1C57.522,52.5,61.522,55.5,63.522,51.5z"/></g><g><path fill="#472b29" d="M64.366,57.75h-4.179c-0.09,0-2.202-0.012-3.306-1.07c-0.827-0.792-2.722-4.316-1.954-6.228 c0.221-0.549,0.768-1.202,2.127-1.202h7.312c2.325,0,3.384,1.166,3.384,2.25v3C67.75,54.532,67.711,57.75,64.366,57.75z M57.055,49.75c-0.879,0-1.423,0.291-1.663,0.889c-0.665,1.659,1.117,4.993,1.836,5.681c0.96,0.92,2.94,0.931,2.96,0.931h4.179 c2.841,0,2.884-2.638,2.884-2.75v-3c0-0.843-0.902-1.75-2.884-1.75H57.055z"/></g><g><path fill="#472b29" d="M52.807,64.007c-0.463,0-1.465-0.094-1.973-0.855c-0.382-0.573-0.382-0.573-1.548-0.785 c-0.737-0.134-1.065-0.542-1.21-0.861c-0.483-1.062,0.394-2.591,0.495-2.761c0.141-0.237,0.448-0.315,0.685-0.174 c0.237,0.141,0.315,0.447,0.175,0.685c-0.236,0.4-0.656,1.375-0.444,1.837c0.028,0.061,0.102,0.222,0.479,0.291 c1.45,0.264,1.601,0.314,2.202,1.215c0.271,0.408,1.036,0.429,1.284,0.405c0.268-0.028,0.52,0.173,0.547,0.448 c0.028,0.275-0.173,0.52-0.447,0.547C53.035,63.999,52.945,64.007,52.807,64.007z"/></g><g><path fill="#472b29" d="M52.615,64.007c-0.135,0-0.224-0.009-0.237-0.01c-0.274-0.029-0.475-0.275-0.445-0.549 c0.028-0.275,0.277-0.474,0.549-0.445c0.008,0.001,0.907,0.074,1.228-0.405c0.61-0.916,0.853-0.959,2.196-1.204 c0.438-0.08,0.511-0.241,0.539-0.302c0.212-0.466-0.208-1.438-0.444-1.836c-0.142-0.238-0.063-0.544,0.174-0.685 c0.237-0.141,0.544-0.064,0.686,0.174c0.102,0.171,0.979,1.7,0.495,2.762c-0.146,0.319-0.474,0.727-1.21,0.861 c-1.229,0.223-1.229,0.223-1.604,0.785C54.034,63.913,53.065,64.007,52.615,64.007z"/></g><g><path fill="#472b29" d="M43,67.25c-0.117,0-0.221-0.082-0.245-0.201c-0.486-2.429-1.955-4.896-1.969-4.92 c-0.071-0.118-0.033-0.272,0.086-0.343c0.118-0.07,0.271-0.033,0.343,0.086c0.062,0.104,1.528,2.566,2.031,5.08 c0.027,0.135-0.061,0.267-0.196,0.294C43.033,67.249,43.016,67.25,43,67.25z"/></g><g><path fill="#472b29" d="M63,67.25c-0.016,0-0.032-0.001-0.049-0.005c-0.136-0.027-0.224-0.159-0.196-0.294 c0.503-2.513,1.969-4.976,2.03-5.08c0.07-0.118,0.224-0.156,0.344-0.086c0.118,0.071,0.156,0.225,0.086,0.343 c-0.016,0.025-1.484,2.493-1.97,4.92C63.222,67.168,63.117,67.25,63,67.25z"/></g><g><path fill="#472b29" d="M44.009,51.5c0.045,0.741,0.654,1.33,1.406,1.33s1.362-0.589,1.406-1.33H44.009z"/></g><g><path fill="#472b29" d="M59.125,51.5c0.045,0.741,0.654,1.33,1.406,1.33s1.362-0.589,1.406-1.33H59.125z"/></g><g><path fill="#472b29" d="M45.48,53.831c-0.26,0-0.524-0.027-0.788-0.089c-1.017-0.24-1.83-0.956-2.416-2.129 c-0.039-0.077-0.035-0.169,0.011-0.243c0.046-0.074,0.126-0.119,0.213-0.119h5c0.066,0,0.13,0.026,0.177,0.073l1,1 c0.051,0.051,0.078,0.122,0.073,0.195c-0.005,0.072-0.042,0.139-0.1,0.182C48.58,52.753,47.121,53.831,45.48,53.831z M42.922,51.75 c0.493,0.819,1.125,1.324,1.883,1.504c1.339,0.316,2.75-0.445,3.303-0.792l-0.712-0.712H42.922z"/></g><g><path fill="#472b29" d="M53,68.998c-1.553,0-3.105-0.557-4.646-1.67c-0.112-0.081-0.137-0.237-0.056-0.349 s0.237-0.137,0.349-0.056c2.93,2.116,5.777,2.116,8.707,0c0.11-0.081,0.267-0.056,0.35,0.056c0.08,0.112,0.056,0.268-0.057,0.349 C56.104,68.441,54.553,68.998,53,68.998z"/></g><g><path fill="#472b29" d="M60.541,53.831c-1.641,0-3.099-1.078-3.17-1.131c-0.058-0.043-0.094-0.11-0.099-0.182 c-0.006-0.073,0.021-0.143,0.072-0.195l1-1c0.047-0.047,0.11-0.073,0.177-0.073h5c0.087,0,0.167,0.045,0.213,0.119 c0.045,0.074,0.05,0.166,0.011,0.243c-0.587,1.173-1.399,1.889-2.416,2.129C61.065,53.803,60.801,53.831,60.541,53.831z M57.913,52.462c0.553,0.348,1.971,1.109,3.303,0.792c0.759-0.18,1.392-0.685,1.884-1.504h-4.475L57.913,52.462z"/></g><g><path fill="#472b29" d="M54.875,52h-3.75c-0.276,0-0.5-0.224-0.5-0.5s0.224-0.5,0.5-0.5h3.75c0.276,0,0.5,0.224,0.5,0.5 S55.151,52,54.875,52z"/></g><g><path fill="#472b29" d="M44.125,63.75c-0.06,0-0.12-0.021-0.168-0.065c-0.103-0.093-0.11-0.251-0.017-0.353 c2.488-2.737,4.888-4.515,4.912-4.533c0.112-0.082,0.268-0.059,0.35,0.053c0.082,0.111,0.058,0.268-0.053,0.349 c-0.024,0.017-2.386,1.769-4.838,4.467C44.261,63.722,44.193,63.75,44.125,63.75z"/></g><g><path fill="#472b29" d="M61,63.25c-0.08,0-0.16-0.039-0.208-0.111c-1.934-2.9-3.885-3.906-3.904-3.915 c-0.123-0.062-0.173-0.212-0.111-0.335c0.063-0.124,0.216-0.172,0.335-0.112c0.085,0.042,2.083,1.064,4.097,4.085 c0.076,0.115,0.046,0.27-0.069,0.347C61.096,63.236,61.048,63.25,61,63.25z"/></g><g><path fill="#472b29" d="M54.75,61.125c-0.112,0-0.214-0.076-0.242-0.189l-0.75-3l-0.123-2.298 c-0.007-0.138,0.1-0.255,0.237-0.262c0.135-0.011,0.256,0.1,0.263,0.237l0.115,2.25l0.742,2.952 c0.034,0.134-0.048,0.27-0.182,0.303C54.79,61.123,54.77,61.125,54.75,61.125z"/></g><g><path fill="#472b29" d="M53.82,54.625c-0.133,0-0.243-0.104-0.25-0.237l-0.07-1.375c-0.007-0.138,0.1-0.255,0.237-0.262 c0.133-0.009,0.256,0.1,0.263,0.237l0.07,1.375c0.007,0.138-0.1,0.255-0.237,0.262C53.829,54.625,53.824,54.625,53.82,54.625z"/></g><g><path fill="#472b29" d="M41.875,51.875c-0.035,0-0.069-0.007-0.102-0.021l-1.125-0.5c-0.126-0.056-0.183-0.204-0.127-0.33 c0.057-0.126,0.205-0.183,0.33-0.127l1.069,0.475l1.939-0.121c0.127-0.006,0.256,0.096,0.265,0.234 c0.009,0.138-0.096,0.257-0.234,0.265l-2,0.125C41.885,51.875,41.88,51.875,41.875,51.875z"/></g><g><path fill="#472b29" d="M64,51.875c-0.005,0-0.011,0-0.016,0l-2-0.125c-0.138-0.009-0.242-0.127-0.233-0.265 c0.008-0.137,0.139-0.24,0.265-0.234l1.938,0.121l1.069-0.475c0.126-0.056,0.274,0,0.33,0.127c0.056,0.126-0.001,0.274-0.127,0.33 l-1.125,0.5C64.069,51.868,64.035,51.875,64,51.875z"/></g><g><path fill="#bd977c" d="M69.125,42.25c-11.181,3.006-22.389,2.991-33.625,0V34c10.887,1.957,22.125,2.046,33.625,0V42.25z"/></g><g><path fill="#472b29" d="M52.994,36c-0.276,0-0.5-0.224-0.5-0.5s0.224-0.5,0.5-0.5c6.326,0,11.554-0.783,15.755-1.412 l0.552-0.083c0.28-0.04,0.527,0.148,0.568,0.421c0.041,0.273-0.147,0.528-0.42,0.568l-0.553,0.083 C64.663,35.211,59.395,36,52.994,36z"/></g><g><path fill="#472b29" d="M50.625,35.982c-0.002,0-0.005,0-0.008,0c-2.914-0.046-5.576-0.175-7.912-0.383 c-0.275-0.025-0.478-0.268-0.454-0.542c0.025-0.275,0.269-0.474,0.542-0.454c2.312,0.207,4.949,0.334,7.838,0.379 c0.276,0.004,0.496,0.232,0.492,0.508C51.121,35.763,50.897,35.982,50.625,35.982z"/></g><g><path fill="#472b29" d="M40.5,35.361c-0.021,0-0.042-0.001-0.063-0.004c-1.854-0.232-3.434-0.526-4.696-0.875 c-0.266-0.074-0.422-0.349-0.349-0.615c0.074-0.267,0.351-0.421,0.615-0.349c1.216,0.336,2.748,0.622,4.554,0.847 c0.274,0.034,0.468,0.284,0.434,0.558C40.964,35.176,40.749,35.361,40.5,35.361z"/></g><g><path fill="#472b29" d="M45.875,55.631c-0.089,0-0.176-0.048-0.221-0.133c-0.065-0.122-0.019-0.273,0.103-0.338 c1.136-0.605,1.981-1.533,2.513-2.76c0.054-0.127,0.2-0.185,0.329-0.13c0.126,0.055,0.185,0.202,0.13,0.329 c-0.578,1.333-1.499,2.343-2.737,3.002C45.955,55.621,45.915,55.631,45.875,55.631z"/></g><g><path fill="#472b29" d="M59.631,55.375c-0.05,0-0.101-0.015-0.144-0.046c-0.918-0.646-1.622-1.523-2.092-2.605 c-0.055-0.127,0.003-0.274,0.13-0.329c0.125-0.055,0.274,0.003,0.329,0.13c0.433,0.997,1.078,1.803,1.92,2.396 c0.113,0.079,0.141,0.235,0.061,0.348C59.786,55.338,59.709,55.375,59.631,55.375z"/></g><g><path fill="#472b29" d="M52.5,22.4c3.94,0,8.398,0.696,13.25,2.068c1.174,0.332,2.038,1.415,2.151,2.693l0.686,7.759 c0.008,0.094,0.013,0.189,0.013,0.284v6.534c-1.072,0.805-6.54,1.862-16.1,1.862s-15.028-1.058-16.1-1.862v-6.534 c0-0.095,0.004-0.189,0.012-0.284l0.686-7.759c0.113-1.279,0.978-2.361,2.152-2.693C44.102,23.096,48.56,22.4,52.5,22.4 M52.5,21 c-4.9,0-9.724,1.016-13.631,2.121c-1.746,0.494-3.001,2.063-3.165,3.917l-0.686,7.759C35.006,34.932,35,35.068,35,35.204V42 c0,2,8.385,3,17.5,3S70,44,70,42v-6.796c0-0.136-0.006-0.271-0.018-0.407l-0.686-7.759c-0.164-1.854-1.419-3.424-3.165-3.917 C62.224,22.016,57.4,21,52.5,21L52.5,21z"/></g></svg>